#!OML:ASF I:\Random Stuff\random\construction\7_22_03\Session 2\subj1.ASF
:FULLY-SPECIFIED
:DEGREES
846
root 3.92151 17.7354 -9.08722 18.2173 -26.3728 -3.24288
lowerback 8.84923 -0.0155689 2.38102
upperback 3.81527 0.107004 -1.7174
thorax -0.997271 0.0736136 -3.12525
lowerneck -22.1741 2.35037 -0.468346
upperneck 40.6782 6.98239 -7.5998
head 20.0541 1.36922 -2.14695
rclavicle 9.54166e-015 2.22639e-014
rhumerus -10.8518 42.4508 -71.4815
rradius 85.7021
rwrist -21.16
rhand -16.6211 -4.56576
rfingers 7.12502
rthumb 9.60096 -34.327
lclavicle 9.54166e-015 2.22639e-014
lhumerus -9.30535 -68.1977 95.7705
lradius 76.755
lwrist -12.5638
lhand -26.1531 40.9218
lfingers 7.12502
lthumb 0.397853 430.901
rfemur -25.3037 1.29407 19.8145
rtibia 15.511
rfoot -4.74544 -6.82828
rtoes -12.2217
lfemur -20.9075 -15.9293 -4.40586
ltibia 18.5558
lfoot -14.1468 22.93
ltoes -33.1557
847
root 3.93148 17.7405 -9.07723 18.0524 -26.3631 -3.14674
lowerback 8.74471 0.0292158 2.21943
upperback 3.74034 0.154067 -1.64026
thorax -1.0154 0.0943089 -2.95782
lowerneck -22.4071 2.17812 -0.621048
upperneck 40.7053 6.62662 -7.21877
head 20.0713 1.25831 -2.00936
rclavicle -4.37326e-015 -7.95139e-016
rhumerus -10.9658 41.6636 -71.3944
rradius 84.9815
rwrist -18.9325
rhand -16.1052 -3.5422
rfingers 7.12502
rthumb 10.0987 -33.2799
lclavicle -4.37326e-015 -7.95139e-016
lhumerus -9.60462 -68.19 96.4527
lradius 76.2784
lwrist -12.5256
lhand -26.1238 40.6302
lfingers 7.12502
lthumb 0.426218 430.61
rfemur -25.1762 1.51233 19.6009
rtibia 15.6025
rfoot -4.79903 -7.10804
rtoes -12.127
lfemur -20.7318 -15.8101 -4.61463
ltibia 18.4971
lfoot -14.1957 22.6382
ltoes -32.6967
848
root 3.9429 17.7406 -9.06716 17.908 -26.3569 -3.02503
lowerback 8.59104 0.0746109 2.08834
upperback 3.65273 0.202814 -1.62837
thorax -1.01914 0.116808 -2.87521
lowerneck -22.5891 2.00971 -0.740179
upperneck 40.6563 6.23895 -6.80643
head 20.0237 1.14941 -1.86558
rclavicle 4.77083e-015 -7.95139e-015
rhumerus -11.2118 40.7043 -71.3594
rradius 84.2835
rwrist -16.1825
rhand -15.5412 -2.56033
rfingers 7.12502
rthumb 10.6427 -32.2708
lclavicle 4.77083e-015 -7.95139e-015
lhumerus -9.83698 -68.2832 96.9255
lradius 75.8376
lwrist -12.3823
lhand -26.0446 40.1986
lfingers 7.12502
lthumb 0.502642 430.178
rfemur -25.0844 1.51958 19.4256
rtibia 15.6378
rfoot -4.76891 -7.2091
rtoes -12.4606
lfemur -20.6145 -15.6455 -4.8598
ltibia 18.4593
lfoot -14.1792 22.384
ltoes -32.6939
849
root 3.95393 17.7395 -9.05584 17.8211 -26.3459 -2.9598
lowerback 8.51372 0.0784287 2.2067
upperback 3.46115 0.215512 -1.74485
thorax -1.17243 0.121076 -3.06433
lowerneck -22.6461 1.91384 -0.734731
upperneck 40.5705 5.94923 -6.50529
head 19.9396 1.08508 -1.77688
rclavicle 5.76476e-014 -1.74931e-014
rhumerus -11.6881 39.5825 -71.5949
rradius 83.5672
rwrist -13.7433
rhand -14.9011 -1.28976
rfingers 7.12502
rthumb 11.2602 -30.9675
lclavicle 5.76476e-014 -1.74931e-014
lhumerus -10.4487 -68.4374 97.4745
lradius 75.512
lwrist -12.1642
lhand -25.9402 40.1014
lfingers 7.12502
lthumb 0.603516 430.08
rfemur -25.0041 1.51094 19.3059
rtibia 15.637
rfoot -4.75193 -7.27141
rtoes -12.6323
lfemur -20.5217 -15.3615 -5.07297
ltibia 18.4128
lfoot -14.0205 22.1124
ltoes -33.0869
850
root 3.96236 17.7411 -9.04368 17.7499 -26.3305 -2.97756
lowerback 8.36227 0.0906376 2.15023
upperback 3.3441 0.227622 -1.68017
thorax -1.20996 0.125039 -2.96573
lowerneck -22.7347 1.83072 -0.848417
upperneck 40.4026 5.77158 -6.29615
head 19.8243 1.03302 -1.68382
rclavicle -7.95139e-016 -3.89618e-014
rhumerus -12.0294 38.4478 -71.5103
rradius 82.9583
rwrist -12.2447
rhand -14.8824 -0.212616
rfingers 7.12502
rthumb 11.2782 -29.8894
lclavicle -7.95139e-016 -3.89618e-014
lhumerus -10.7393 -68.5201 97.9342
lradius 75.1828
lwrist -11.7994
lhand -25.9364 40.5782
lfingers 7.12502
lthumb 0.607142 430.557
rfemur -24.9083 1.66865 19.2269
rtibia 15.7093
rfoot -4.83495 -7.46297
rtoes -12.3869
lfemur -20.3996 -14.9814 -5.22494
ltibia 18.4035
lfoot -13.8694 21.7737
ltoes -33.4239
851
root 3.97037 17.7429 -9.03087 17.6198 -26.2997 -2.94485
lowerback 8.2161 0.12633 2.09138
upperback 3.25379 0.269582 -1.66435
thorax -1.2204 0.144778 -2.91913
lowerneck -22.8811 1.67059 -0.992618
upperneck 40.3193 5.39106 -5.84992
head 19.7525 0.930248 -1.51806
rclavicle 1.94809e-014 -1.82882e-014
rhumerus -12.5594 37.0628 -71.5485
rradius 82.5297
rwrist -11.7456
rhand -15.9571 0.349401
rfingers 7.12502
rthumb 10.2415 -29.3813
lclavicle 1.94809e-014 -1.82882e-014
lhumerus -10.9185 -68.8322 98.3188
lradius 74.7757
lwrist -11.4883
lhand -25.8612 41.0943
lfingers 7.12502
lthumb 0.679836 431.073
rfemur -24.7574 1.72955 19.1243
rtibia 15.7552
rfoot -4.89716 -7.56533
rtoes -12.3489
lfemur -20.2409 -14.7823 -5.40189
ltibia 18.3897
lfoot -13.7826 21.5462
ltoes -33.6752
852
root 3.98063 17.7418 -9.0168 17.4212 -26.2219 -2.82829
lowerback 8.09458 0.114007 2.01353
upperback 3.16166 0.246676 -1.66425
thorax -1.25059 0.131913 -2.87243
lowerneck -23.0163 1.51204 -1.17166
upperneck 40.2475 5.03609 -5.41875
head 19.6914 0.829298 -1.3495
rclavicle 1.55052e-014 -4.77083e-015
rhumerus -13.1825 35.686 -71.5384
rradius 82.3369
rwrist -11.8155
rhand -17.5288 0.875721
rfingers 7.12502
rthumb 8.72509 -28.9239
lclavicle 1.55052e-014 -4.77083e-015
lhumerus -10.9846 -69.1036 98.6694
lradius 74.1816
lwrist -11.3833
lhand -25.9205 41.4698
lfingers 7.12502
lthumb 0.622564 431.449
rfemur -24.5516 1.57203 18.9854
rtibia 15.7504
rfoot -4.95194 -7.50887
rtoes -12.3258
lfemur -20.0754 -14.7635 -5.63624
ltibia 18.3601
lfoot -13.79 21.4028
ltoes -33.6469
853
root 3.99103 17.7422 -9.00184 17.2063 -26.1148 -2.7365
lowerback 7.99596 0.051868 1.88724
upperback 3.06966 0.155632 -1.61088
thorax -1.29796 0.0844671 -2.73732
lowerneck -23.1311 1.38671 -1.28312
upperneck 40.1676 4.78071 -5.1704
head 19.6419 0.750443 -1.26179
rclavicle 2.38542e-014 2.3059e-014
rhumerus -13.8446 34.311 -71.3761
rradius 82.4224
rwrist -11.8267
rhand -18.3229 1.61243
rfingers 7.12502
rthumb 7.95872 -28.2177
lclavicle 2.38542e-014 2.3059e-014
lhumerus -10.9553 -69.2487 98.9036
lradius 73.5085
lwrist -11.2895
lhand -26.3971 41.9951
lfingers 7.12502
lthumb 0.162223 431.975
rfemur -24.2935 1.54698 18.8354
rtibia 15.7244
rfoot -5.02849 -7.66694
rtoes -11.4481
lfemur -19.8771 -14.72 -5.85323
ltibia 18.3087
lfoot -13.7515 21.216
ltoes -33.7147
854
root 4.00033 17.7433 -8.98546 17.0069 -26.016 -2.70607
lowerback 7.88255 -0.0111166 1.7777
upperback 2.98979 0.0647801 -1.54883
thorax -1.3239 0.0376897 -2.60278
lowerneck -23.2326 1.24233 -1.36701
upperneck 40.0955 4.47545 -4.90766
head 19.5932 0.658966 -1.18412
rclavicle 2.38542e-015 7.15625e-015
rhumerus -14.5635 32.7908 -71.2187
rradius 82.6937
rwrist -11.4975
rhand -18.0479 2.29479
rfingers 7.12502
rthumb 8.22409 -27.5251
lclavicle 2.38542e-015 7.15625e-015
lhumerus -10.8217 -69.4802 98.9269
lradius 72.9299
lwrist -11.0919
lhand -26.4849 42.3338
lfingers 7.12502
lthumb 0.077397 432.313
rfemur -23.9936 1.61811 18.7288
rtibia 15.6665
rfoot -5.06795 -7.90649
rtoes -10.3939
lfemur -19.6575 -14.7127 -6.00818
ltibia 18.2779
lfoot -13.6568 21.0888
ltoes -34.1652
855
root 4.01066 17.7441 -8.96638 16.8067 -25.9143 -2.69224
lowerback 7.75896 -0.0641615 1.7556
upperback 2.90291 -0.00723521 -1.52554
thorax -1.34952 0.000880531 -2.55953
lowerneck -23.3246 1.09132 -1.46952
upperneck 40.0784 4.14685 -4.5887
head 19.5748 0.56271 -1.08301
rclavicle -2.38542e-015 3.65764e-014
rhumerus -15.2986 31.17 -71.1211
rradius 82.9668
rwrist -10.7625
rhand -17.1321 3.20866
rfingers 7.12502
rthumb 9.10788 -26.5747
lclavicle -2.38542e-015 3.65764e-014
lhumerus -10.6071 -69.9114 98.8433
lradius 72.4137
lwrist -10.7126
lhand -25.8837 41.9485
lfingers 7.12502
lthumb 0.658097 431.927
rfemur -23.6304 1.68442 18.6367
rtibia 15.5291
rfoot -5.04031 -8.10042
rtoes -10.3441
lfemur -19.4293 -14.9812 -6.11377
ltibia 18.277
lfoot -13.6959 21.216
ltoes -34.2038
856
root 4.01998 17.7421 -8.94678 16.6284 -25.81 -2.70718
lowerback 7.60323 -0.113845 1.7107
upperback 2.79932 -0.0758775 -1.46418
thorax -1.37424 -0.0345045 -2.46445
lowerneck -23.4249 0.93718 -1.62712
upperneck 40.1645 3.84361 -4.26865
head 19.6268 0.464576 -0.969511
rclavicle -1.19271e-015 -1.11319e-014
rhumerus -16.2176 29.7863 -70.8694
rradius 83.3403
rwrist -9.83275
rhand -16.1368 4.70644
rfingers 7.12502
rthumb 10.0681 -25.0327
lclavicle -1.19271e-015 -1.11319e-014
lhumerus -10.4002 -70.3305 98.8127
lradius 71.8838
lwrist -10.284
lhand -25.5931 41.5615
lfingers 7.12502
lthumb 0.938771 431.539
rfemur -23.2673 1.62532 18.6138
rtibia 15.3735
rfoot -5.05501 -8.14982
rtoes -10.7157
lfemur -19.2139 -15.2849 -6.18182
ltibia 18.2964
lfoot -13.7527 21.3768
ltoes -33.8262
857
root 4.02827 17.7406 -8.92746 16.462 -25.705 -2.74915
lowerback 7.4105 -0.230367 1.58647
upperback 2.68811 -0.237569 -1.33388
thorax -1.39052 -0.116543 -2.24571
lowerneck -23.4597 0.813458 -1.92566
upperneck 40.225 3.61098 -3.86986
head 19.6428 0.383207 -0.775125
rclavicle -3.75703e-014 2.8625e-014
rhumerus -17.0175 28.6664 -70.5952
rradius 83.646
rwrist -8.37597
rhand -15.1161 6.30158
rfingers 7.12502
rthumb 11.0527 -23.3874
lclavicle -3.75703e-014 2.8625e-014
lhumerus -10.337 -70.426 98.8906
lradius 71.3802
lwrist -10.0964
lhand -25.8021 41.7411
lfingers 7.12502
lthumb 0.736856 431.72
rfemur -22.906 1.58687 18.6167
rtibia 15.2318
rfoot -5.09701 -8.22694
rtoes -10.8079
lfemur -19.0063 -15.3658 -6.25673
ltibia 18.3284
lfoot -13.791 21.3296
ltoes -33.4578
858
root 4.03858 17.7407 -8.90682 16.2648 -25.6132 -2.75673
lowerback 7.21222 -0.390182 1.46918
upperback 2.57228 -0.45704 -1.25245
thorax -1.40989 -0.227112 -2.07729
lowerneck -23.4506 0.696211 -2.18982
upperneck 40.264 3.35485 -3.44506
head 19.6346 0.302688 -0.57902
rclavicle -1.11319e-014 -2.06736e-014
rhumerus -17.7857 27.6035 -70.5044
rradius 83.8336
rwrist -6.22658
rhand -14.172 7.69388
rfingers 7.12502
rthumb 11.9633 -21.9443
lclavicle -1.11319e-014 -2.06736e-014
lhumerus -10.4913 -70.4326 99.0522
lradius 70.9785
lwrist -10.0911
lhand -25.4577 41.9891
lfingers 7.12502
lthumb 1.0695 431.966
rfemur -22.5279 1.62659 18.5517
rtibia 15.0947
rfoot -5.07338 -8.39399
rtoes -10.8157
lfemur -18.7901 -15.2495 -6.41365
ltibia 18.3859
lfoot -13.9029 21.0944
ltoes -33.1852
859
root 4.04902 17.74 -8.88569 16.0419 -25.5956 -2.75086
lowerback 7.03051 -0.507545 1.33445
upperback 2.46498 -0.622416 -1.23116
thorax -1.42602 -0.310473 -1.96633
lowerneck -23.5054 0.563514 -2.32416
upperneck 40.3626 3.03217 -3.05035
head 19.6877 0.21086 -0.43743
rclavicle 2.52457e-014 -2.06736e-014
rhumerus -18.6644 26.5107 -70.658
rradius 83.9688
rwrist -3.97555
rhand -14.0968 8.70554
rfingers 7.12502
rthumb 12.0358 -20.9284
lclavicle 2.52457e-014 -2.06736e-014
lhumerus -10.7272 -70.565 99.2427
lradius 70.6456
lwrist -9.96275
lhand -24.8333 42.5329
lfingers 7.12502
lthumb 1.67253 432.506
rfemur -22.1516 1.62863 18.4817
rtibia 14.9625
rfoot -5.00826 -8.45127
rtoes -11.071
lfemur -18.5228 -15.1448 -6.60041
ltibia 18.4486
lfoot -14.0269 20.9487
ltoes -33.0375
